<?xml version="1.0" standalone="no"?>
<!DOCTYPE svg PUBLIC "-//W3C//DTD SVG 1.1//EN" "http://www.w3.org/Graphics/SVG/1.1/DTD/svg11.dtd" >
<!--
2013-9-30: Created.
-->
<svg>
<metadata>
Created by iconfont
</metadata>
<defs>

<font id="iconfont" horiz-adv-x="1024" >
  <font-face
    font-family="iconfont"
    font-weight="500"
    font-stretch="normal"
    units-per-em="1024"
    ascent="896"
    descent="-128"
  />
    <missing-glyph />
    
    <glyph glyph-name="tab-category-checked" unicode="&#58906;" d="M85.333333 810.666667h384v-384H85.333333zM85.333333 341.33333300000004h384v-384H85.333333zM554.666667 341.33333300000004h384v-384h-384zM554.666667 810.666667h213.333333a170.666667 170.666667 0 0 0 170.666667-170.666667v-213.333333h-384V810.666667z"  horiz-adv-x="1024" />

    
    <glyph glyph-name="tab-home" unicode="&#58907;" d="M900.3614811-8.14800630000002V460.70139259l-392.05091555 308.99010332L123.6385189 460.94411813v-469.09212443h194.18073998v160.1991111a145.63555555 145.63555555 0 0 0 145.63555555 145.63555556h242.72592669v-305.83466666h194.18073998z m-436.90666667 208.74429667a48.54518557 48.54518557 0 0 1-48.54518442-48.54518557v-257.2894811H26.54814777V507.54749591L507.77656889 893.72444482 997.45185223 507.7902226v-613.0285989h-388.36148224v305.83466667h-145.63555556z"  horiz-adv-x="1024" />

    
    <glyph glyph-name="tab-category" unicode="&#58908;" d="M170.666667 725.333333v-227.370666h227.370666V725.333333H170.666667z m312.704 85.333334v-398.037334H85.333333V810.666667h398.037334zM853.333333 497.962667V597.333333a128 128 0 0 1-128 128h-99.370666v-227.370666H853.333333zM938.666667 597.333333v-184.704h-398.037334V810.666667H725.333333a213.333333 213.333333 0 0 0 213.333334-213.333334zM170.666667 42.66666699999996v227.370666h227.370666V42.66666699999996H170.666667z m312.704-85.333334v398.037334H85.333333V-42.66666699999996h398.037334zM853.333333 42.66666699999996h-227.370666v227.370666H853.333333V42.66666699999996z m85.333334 312.704h-398.037334V-42.66666699999996H938.666667v398.037334z"  horiz-adv-x="1024" />

    
    <glyph glyph-name="tab-cart-checked" unicode="&#58909;" d="M243.14524444 663.43822258h737.96266666l-53.20248853-378.6524448a182.0444448 182.0444448 0 0 0-180.224-156.6947552H208.7843559L150.02951111 663.43822258h0.95573333l-9.78488854 61.21244373-121.46915626 49.60711147 34.4064 84.1955552 168.84622293-68.90382187 20.20693333-126.06577813z m50.9724448-759.26186667a87.0627552 87.0627552 0 1 0 0 174.1255104 87.0627552 87.0627552 0 0 0 0-174.1255104z m435.31377706 0a87.0627552 87.0627552 0 1 0 0 174.1255104 87.0627552 87.0627552 0 0 0 0-174.1255104z"  horiz-adv-x="1024" />

    
    <glyph glyph-name="tab-cart" unicode="&#58910;" d="M326.485333 37.120000000000005m-81.621333 0a81.621333 81.621333 0 1 1 163.242667 0 81.621333 81.621333 0 1 1-163.242667 0ZM734.592 37.120000000000005m-81.621333 0a81.621333 81.621333 0 1 1 163.242666 0 81.621333 81.621333 0 1 1-163.242666 0ZM241.962667 617.557333l58.368-363.904h414.293333a128 128 0 0 1 126.592 109.226667l37.845333 254.72H241.92z m-13.653334 85.333334h749.653334l-52.352-352.597334a213.333333 213.333333 0 0 0-211.029334-181.973333H227.584L137.728 728.874667l-113.92 46.506666 32.298667 78.976 158.293333-64.597333 13.909333-86.869333z"  horiz-adv-x="1024" />

    
    <glyph glyph-name="tab-home-checked" unicode="&#58911;" d="M684.58784237-151.11033954999994v362.47071524h-241.61262342a103.56306132 103.56306132 0 0 1-103.56306132-103.56306132v-258.90765392H-5.81530905V489.99679408L507.33966222 901.81530905 1029.81530905 489.99679408v-641.05535291h-345.22746668z"  horiz-adv-x="1024" />

    
    <glyph glyph-name="wait-pay" unicode="&#58912;" d="M906.780444 508.899556H663.608889c-66.275556 0-120.035556-62.293333-120.035556-139.121778s53.76-139.121778 120.035556-139.121778h243.143111V14.222221999999988H85.333333V725.333333h821.447111v-216.433777zM726.926222 369.777778c0-25.628444-20.508444-46.364444-45.852444-46.364445a46.08 46.08 0 0 0-45.795556 46.364445c0 25.628444 20.48 46.364444 45.795556 46.364444 25.315556 0 45.852444-20.736 45.852444-46.364444"  horiz-adv-x="1024" />

    
    <glyph glyph-name="after-sale" unicode="&#58913;" d="M611.555556-14.222221999999988C399.473778-14.222221999999988 227.555556 157.69600000000003 227.555556 369.777778S399.473778 753.777778 611.555556 753.777778 995.555556 581.859556 995.555556 369.777778 823.637333-14.222221999999988 611.555556-14.222221999999988z m41.813333 159.516444h1.507555v102.940445h112.554667l8.817778 0.113777v1.223112c11.690667 3.214222 20.195556 12.600889 20.195555 23.751111 0 13.738667-13.027556 24.917333-29.013333 24.917333h-112.554667v38.4h112.554667l8.817778 0.142222v1.194667c11.690667 3.242667 20.195556 12.629333 20.195555 23.779555 0 13.738667-13.027556 24.888889-29.013333 24.888889h-112.554667v21.191111l117.703112 99.072 5.632 4.977778-0.568889 0.568889a22.613333 22.613333 0 0 1 4.209777 11.377778 22.812444 22.812444 0 0 1-7.310222 18.119111c-10.154667 9.870222-28.928 11.235556-41.301333 1.877333l-106.951111-90.595555-113.180445 95.431111c-11.548444 8.760889-30.862222 7.822222-40.96-2.104889a22.243556 22.243556 0 0 1-2.929777-29.724444l-0.654223-0.654223 128.113778-107.576889v-21.959111l-121.372444-0.056889v-1.194666c-11.719111-3.242667-20.195556-12.657778-20.195556-23.751111 0-11.093333 8.476444-20.508444 20.195556-23.751111v-1.251556h121.372444v-38.4l-121.372444-0.085333v-1.137778c-11.719111-3.214222-20.195556-12.686222-20.195556-23.751111 0-11.093333 8.476444-20.536889 20.195556-23.779556v-1.251555h121.372444v-95.374223l0.085333-7.566222h1.336889c3.783111-10.012444 14.791111-17.294222 27.648-17.294222 12.942222 0 23.893333 7.281778 27.648 17.294222zM85.333333 369.777778c0 116.622222 38.058667 227.527111 107.235556 318.378666a28.444444 28.444444 0 1 0 45.226667-34.417777A467.057778 467.057778 0 0 1 142.222222 369.777778c0-52.167111 18.688-127.089778 56.405334-223.715556 10.752-27.534222-22.442667-51.2-44.942223-32L31.004444 218.53866700000003a28.444444 28.444444 0 0 0 36.892445 43.320889l43.008-36.636445C93.895111 282.254222 85.333333 330.35377800000003 85.333333 369.777778z"  horiz-adv-x="1024" />

    
    <glyph glyph-name="wait-receive" unicode="&#58914;" d="M498.090667 327.11111100000005v-341.333333H227.555556V327.11111100000005h270.535111z m55.637333 0H796.444444v-341.333333h-242.716444V327.11111100000005zM498.318222 554.666667v-199.111111H142.222222v199.111111h356.096z m54.755556 0H881.777778v-199.111111H553.073778v199.111111zM506.396444 562.432l-152.177777 45.880889a85.333333 85.333333 0 0 0-35.726223 142.023111 85.333333 85.333333 0 0 0 142.023112-35.726222l45.880888-152.177778zM517.603556 562.432l152.177777 45.880889a85.333333 85.333333 0 0 1 35.726223 142.023111 85.333333 85.333333 0 0 1-142.023112-35.726222l-45.880888-152.177778z"  horiz-adv-x="1024" />

    
    <glyph glyph-name="wait-deliver" unicode="&#58915;" d="M782.023111 146.602667a106.581333 106.581333 0 0 1-89.799111 49.066666c-37.688889 0-70.826667-19.541333-89.799111-49.066666H364.657778a106.552889 106.552889 0 0 1-87.324445 45.397333c-36.124444 0-68.039111-17.92-87.324444-45.397333H85.333333v269.909333L260.323556 583.1111109999999h178.119111V753.777778h490.666666v-607.175111h-147.057777zM280.092444 526.222222L170.666667 412.444444h206.933333V526.222222H280.092444zM270.222222 85.33333300000004m-71.111111 0a71.111111 71.111111 0 1 1 142.222222 0 71.111111 71.111111 0 1 1-142.222222 0ZM696.888889 85.33333300000004m-71.111111 0a71.111111 71.111111 0 1 1 142.222222 0 71.111111 71.111111 0 1 1-142.222222 0Z"  horiz-adv-x="1024" />

    
    <glyph glyph-name="question" unicode="&#58916;" d="M490.666667-85.33333300000004C243.242667-85.33333300000004 42.666667 115.24266699999998 42.666667 362.66666699999996S243.242667 810.666667 490.666667 810.666667 938.666667 610.0906669999999 938.666667 362.66666699999996 738.090667-85.33333300000004 490.666667-85.33333300000004z m0 85.333333a362.666667 362.666667 0 1 1 0 725.333333 362.666667 362.666667 0 0 1 0-725.333333z m65.578666 512H384V597.333333h257.578667v-256H534.186667v-100.096h-85.333334V426.666667h107.434667V512zM426.666667 213.33333300000004h128v-128h-128v128z"  horiz-adv-x="1024" />

    
    <glyph glyph-name="order" unicode="&#58917;" d="M213.333333 725.333333v-675.541333h426.666667a128 128 0 0 1 128 128V725.333333H213.333333z m640 85.333334v-632.874667a213.333333 213.333333 0 0 0-213.333333-213.333333H128V810.666667h725.333333zM290.645333 523.221333v85.333334h400v-85.333334H290.688z m0-161.706666v85.333333h187.989334v-85.333333H290.688z"  horiz-adv-x="1024" />

    
    <glyph glyph-name="message" unicode="&#58918;" d="M306.688 103.38133300000004l170.410667 120.618667H810.666667V554.666667a128 128 0 0 1-128 128H170.666667v-458.666667h136.021333v-120.618667z m-85.333333-164.949333V138.66666699999996H85.333333V768h597.333334a213.333333 213.333333 0 0 0 213.333333-213.333333v-416h-391.765333l-282.88-200.234667z m42.666666 516.48v85.333333h431.744v-85.333333H263.978667z m0-135.978667v85.333334h202.837334v-85.333334H263.978667z"  horiz-adv-x="1024" />

    
    <glyph glyph-name="location-thick" unicode="&#58919;" d="M320.512 497.664c0 106.752 83.797333 194.005333 187.989333 194.005333 104.192 0 187.989333-87.210667 187.989334-194.005333 0-106.752-83.797333-194.048-187.989334-194.048-104.277333 0-187.989333 87.253333-187.989333 194.048z m85.333333 0c0-60.416 46.336-108.714667 102.656-108.714667 56.234667 0 102.656 48.341333 102.656 108.714667 0 60.416-46.378667 108.672-102.656 108.672-56.277333 0-102.656-48.298667-102.656-108.672z m130.816-467.285333c37.546667 42.538667 77.696 91.733333 114.645334 141.696C750.378667 306.09066700000005 810.666667 423.68 810.666667 497.621333 810.666667 670.933333 676.522667 810.666667 512 810.666667S213.333333 670.890667 213.333333 497.664c0-46.848 25.514667-113.493333 72.533334-192.853333a1512.618667 1512.618667 0 0 1 89.6-132.522667 2439.381333 2439.381333 0 0 1 137.984-167.68c7.082667 7.722667 14.933333 16.426667 23.210666 25.770667zM128 497.664C128 717.226667 299.52 896 512 896s384-178.773333 384-398.336c0-171.221333-314.965333-597.205333-384-597.205333a42.666667 42.666667 0 0 0-30.890667 13.226666 2437.12 2437.12 0 0 0-54.613333 60.416A2523.392 2523.392 0 0 0 307.2 121.17333299999996a1595.818667 1595.818667 0 0 0-94.677333 140.117334C158.293333 352.76800000000003 128 431.829333 128 497.664z"  horiz-adv-x="1024" />

    
    <glyph glyph-name="cart" unicode="&#58920;" d="M355.793852 5.445943000000057m-88.948463 0a88.948463 88.948463 0 1 1 177.896926 0 88.948463 88.948463 0 1 1-177.896926 0ZM800.536167 5.445943000000057m-88.948463 0a88.948463 88.948463 0 1 1 177.896926 0 88.948463 88.948463 0 1 1-177.896926 0ZM263.683604 637.989011l63.607682-396.571584h451.484358a139.490533 139.490533 0 0 1 137.956136 119.031921l41.242701 277.58616H263.637107z m-14.878991 92.993689h816.949553l-57.051628-384.249921a232.484221 232.484221 0 0 0-229.973391-198.30904H248.014167L150.091813 759.299278l-124.146574 50.68156 35.198111 86.065659 172.503292-70.396222 15.157971-94.667575z"  horiz-adv-x="1069" />

    
    <glyph glyph-name="share" unicode="&#58921;" d="M899.453595-40.103384000000005V406.464559h55.350514v-474.2432a27.675257 27.675257 0 0 0-27.675257-27.675257H318.273202a249.077311 249.077311 0 0 0-249.077311 249.077311V700.265086a27.675257 27.675257 0 0 0 27.675257 27.675257h303.486866v-55.350514H124.546405v-518.966416a193.726798 193.726798 0 0 1 193.726797-193.726797h581.180393zM497.332114 104.91496099999995a27.675257 27.675257 0 1 0-55.350514 0v205.627158a417.342873 417.342873 0 0 0 417.342873 417.398224 27.675257 27.675257 0 1 0 0-55.350514 361.992359 361.992359 0 0 1-361.992359-361.992359v-205.682509zM883.955451 697.940364L733.236003 848.715163a27.675257 27.675257 0 0 0 39.132813 39.188164l170.368881-170.424232a27.675257 27.675257 0 0 0 0-39.132813l-157.693613-157.748963a27.675257 27.675257 0 1 0-39.132813 39.188163l138.154882 138.154882z"  horiz-adv-x="1024" />

    
    <glyph glyph-name="me" unicode="&#58922;" d="M689.814588 629.6997650000001a175.887059 175.887059 0 1 1-351.894588 0 175.887059 175.887059 0 0 1 351.894588 0z m60.235294 0a236.122353 236.122353 0 1 0-472.365176 0 236.122353 236.122353 0 0 0 472.365176 0zM873.411765-20.178823999999963v76.920471a210.823529 210.823529 0 0 1-210.82353 210.823529H361.411765a210.823529 210.823529 0 0 1-210.82353-210.823529v-76.980706h722.82353zM361.411765 327.740235h301.17647a271.058824 271.058824 0 0 0 271.058824-271.058823v-107.098353a30.117647 30.117647 0 0 0-30.117647-30.117647H120.470588a30.117647 30.117647 0 0 0-30.117647 30.117647v107.098353a271.058824 271.058824 0 0 0 271.058824 271.058823z"  horiz-adv-x="1024" />

    
    <glyph glyph-name="delete" unicode="&#58923;" d="M80.842105 650.994526v53.894737h862.31579v-53.894737zM337.758316 712.865684h348.483368V815.157895H337.758316v-102.292211zM740.136421 869.052632v-210.081685H283.863579V869.052632h456.272842zM203.614316-65.10484199999996h535.929263a80.842105 80.842105 0 0 1 80.842105 80.842105V596.2913679999999h53.894737v-580.554105a134.736842 134.736842 0 0 0-134.736842-134.736842H149.719579V596.2913679999999h53.894737v-661.39621zM604.806737 522.509474h53.894737v-442.47579h-53.894737zM365.298526 522.509474h53.894737v-442.47579h-53.894737z"  horiz-adv-x="1024" />

    
    <glyph glyph-name="tijiaodingdandianhuax" unicode="&#58924;" d="M988.7744 110.455467c-1.911467-56.456533-43.485867-133.802667-93.184-169.7792-134.007467-94.6176-440.32 3.003733-646.485333 234.154666C147.933867 288.426667 85.947733 396.288 55.569067 497.595733 34.542933 567.637333 30.993067 621.7728 36.113067 675.498667c6.485333 56.797867 28.2624 97.621333 74.410666 129.024C156.603733 842.274133 207.530667 862.685867 247.739733 861.866667c42.666667-0.887467 58.641067-14.336 102.8096-80.0768 53.930667-75.229867 71.202133-124.245333 67.447467-165.000534-3.413333-35.498667-17.476267-55.7056-46.148267-79.0528-6.621867-5.3248-9.762133-7.850667-12.4928-10.171733-2.525867-2.116267-4.778667-4.096-3.140266-1.979733l-6.007467-7.9872c-30.72-41.984-22.391467-86.4256 77.892267-191.6928 115.438933-112.913067 176.469333-130.935467 203.502933-110.045867 2.389333 1.774933 0.8192 0 5.051733 5.188267 45.124267 64.512 60.0064 77.550933 101.1712 84.1728 39.594667 6.3488 52.4288 0.4096 146.705067-60.074667 86.766933-55.569067 112.776533-88.337067 104.311467-134.690133z m-141.175467 77.277866c-77.824 49.834667-83.5584 52.565333-98.986666 50.039467-17.954133-2.8672-20.616533-5.188267-57.480534-57.7536-9.966933-12.356267-9.352533-11.605333-17.885866-18.2272-60.484267-46.6944-156.125867-18.432-293.819734 116.189867-121.924267 128-136.874667 208.0768-84.445866 279.893333 2.048 2.730667 3.6864 4.983467 10.513066 13.243733 3.072 2.8672 6.280533 5.666133 9.762134 8.669867 3.413333 2.8672 7.236267 5.9392 13.448533 10.922667 15.906133 12.970667 19.933867 18.773333 21.2992 32.494933 2.048 22.186667-9.8304 55.842133-55.569067 119.671467-33.450667 49.698133-34.338133 50.449067-48.196266 50.722133-22.664533 0.477867-58.1632-13.789867-94.754134-43.6224-30.993067-21.162667-43.144533-43.963733-47.445333-81.578667-4.3008-44.987733-1.297067-90.5216 16.930133-151.278933 27.306667-91.409067 84.3776-190.532267 179.063467-296.823467 185.685333-208.349867 456.157867-294.5024 555.8272-224.0512 32.426667 23.415467 63.488 81.237333 65.194667 121.309867 2.6624 15.018667-7.7824 28.0576-73.454934 70.178133l18.432 28.740267-18.432-28.740267z"  horiz-adv-x="1024" />

    
    <glyph glyph-name="location" unicode="&#58925;" d="M334.734222 483.441778c0 98.986667 77.539556 179.768889 173.738667 179.768889 96.256 0 173.795556-80.668444 173.795555-179.768889 0-98.986667-77.596444-179.768889-173.795555-179.768889-96.256 0-173.738667 80.725333-173.738667 179.768889z m56.888889 0c0-68.152889 52.565333-122.88 116.849778-122.88s116.906667 54.784 116.906667 122.88c0 68.152889-52.622222 122.88-116.906667 122.88-64.227556 0-116.849778-54.784-116.849778-122.88z m110.364445-525.824c-0.796444-0.568889-1.991111-1.763556-4.209778-3.811556l2.332444 2.275556 1.934222 1.536z m45.340444 49.152a2160.64 2160.64 0 0 1 115.427556 142.620444c100.807111 136.419556 162.133333 255.943111 162.133333 334.051556C824.888889 664.405333 684.544 810.666667 512 810.666667S199.111111 664.462222 199.111111 483.441778c0-50.062222 26.282667-118.727111 74.524445-200.078222 25.201778-42.496 55.751111-87.381333 90.453333-133.802667a2453.390222 2453.390222 0 0 1 149.162667-180.167111 1399.466667 1399.466667 0 0 1 34.076444 37.376zM142.222222 483.441778C142.222222 695.296 307.541333 867.555556 512 867.555556s369.777778-172.259556 369.777778-384.113778C881.777778 319.31733299999996 572.074667-99.55555600000002 512-99.55555600000002h-12.174222l-8.419556 8.817778a2422.897778 2422.897778 0 0 0-54.158222 59.960889 2509.368889 2509.368889 0 0 0-118.670222 146.204445 1581.966222 1581.966222 0 0 0-93.866667 138.922666C171.690667 343.77955599999996 142.222222 420.750222 142.222222 483.441778z"  horiz-adv-x="1024" />

    
    <glyph glyph-name="right-arrow" unicode="&#58926;" d="M646.749054 384.058175L250.226841-22.98211600000002a62.643063 62.643063 0 0 1 0-86.93703 58.733689 58.733689 0 0 1 84.703101 0l438.780684 450.508806a62.643063 62.643063 0 0 1 0 86.93703L334.929942 878.035496a59.01293 59.01293 0 0 1-84.703101 0 62.549983 62.549983 0 0 1 0-86.93703L646.749054 384.058175"  horiz-adv-x="1024" />

    
    <glyph glyph-name="search" unicode="&#58927;" d="M471.68 48.639999999999986A407.68 407.68 0 1 0 471.68 864a407.68 407.68 0 0 0 0-815.36z m0 64a343.68 343.68 0 1 1 0 687.36 343.68 343.68 0 0 1 0-687.36zM718.912 99.84000000000003a32 32 0 0 0 45.312 45.248l194.944-195.008a32 32 0 0 0-45.248-45.248l-195.008 194.944z"  horiz-adv-x="1024" />

    
    <glyph glyph-name="check" unicode="&#58928;" d="M512-102.39999999999998a486.4 486.4 0 1 0 0 972.8 486.4 486.4 0 0 0 0-972.8z m0 51.2a435.2 435.2 0 1 1 0 870.4 435.2 435.2 0 0 1 0-870.4z"  horiz-adv-x="1024" />

    
    <glyph glyph-name="group-deliver" unicode="&#58929;" d="M512 896C229.282909 896 0 666.763636 0 384s229.282909-512 512-512c282.763636 0 512 229.236364 512 512S794.763636 896 512 896m0-34.117818C775.493818 861.8821820000001 989.882182 647.447273 989.882182 384S775.447273-93.88218199999994 512-93.88218199999994 34.117818 120.552727 34.117818 384 248.552727 861.8821820000001 512 861.8821820000001M273.082182 179.20000000000005h477.835636V486.4H273.082182v-307.2z m-34.164364 307.2h-17.035636a17.035636 17.035636 0 0 0-17.082182 17.082182v102.4c0 9.402182 7.633455 17.035636 17.082182 17.035636h580.235636c9.448727 0 17.082182-7.633455 17.082182-17.035636v-102.4a17.035636 17.035636 0 0 0-17.082182-17.082182h-17.035636v-324.282182a17.035636 17.035636 0 0 0-17.082182-17.035636h-512a17.035636 17.035636 0 0 0-17.082182 17.035636V486.4z m0 34.117818h546.164364V588.8H238.917818v-68.282182z m256-322.699636c-9.402182 0-17.035636 4.794182-17.035636 10.705454V466.385455c0 5.911273 7.633455 10.705455 17.035636 10.705454 9.448727 0 17.082182-4.794182 17.082182-10.705454v-257.861819c0-5.911273-7.633455-10.705455-17.082182-10.705454"  horiz-adv-x="1024" />

    
    <glyph glyph-name="group-pay" unicode="&#58930;" d="M512 896C229.282909 896 0 666.763636 0 384s229.282909-512 512-512c282.763636 0 512 229.236364 512 512S794.763636 896 512 896m0-34.117818C775.493818 861.8821820000001 989.882182 647.447273 989.882182 384S775.447273-93.88218199999994 512-93.88218199999994 34.117818 120.552727 34.117818 384 248.552727 861.8821820000001 512 861.8821820000001m15.173818-510.603637v-31.32509H660.945455v-29.277091h-133.725091v-131.584h-37.608728v131.584H355.886545v29.277091h133.678546v31.32509L343.365818 566.4581820000001h41.751273l125.346909-188.043637 121.204364 188.043637h48.034909l-152.529455-215.179637z"  horiz-adv-x="1024" />

    
    <glyph glyph-name="pintuanxuanzex" unicode="&#58931;" d="M512 896C229.282909 896 0 666.763636 0 384s229.282909-512 512-512c282.763636 0 512 229.236364 512 512S794.763636 896 512 896m0-34.117818C775.493818 861.882182 989.882182 647.447273 989.882182 384S775.447273-93.882182 512-93.882182 34.117818 120.552727 34.117818 384 248.552727 861.882182 512 861.882182M472.389818 164.584727a15.36 15.36 0 0 0-11.450182 5.213091L297.332364 350.021818a19.130182 19.130182 0 0 0 0 25.274182 15.173818 15.173818 0 0 0 22.900363 0l149.597091-164.864 231.889455 385.070545a15.36 15.36 0 0 0 22.481454 4.980364c7.447273-5.445818 9.448727-16.477091 4.514909-24.669091l-242.827636-403.269818a15.965091 15.965091 0 0 0-13.498182-7.959273"  horiz-adv-x="1024" />

    
    <glyph glyph-name="group-invite" unicode="&#58932;" d="M512 896C229.282909 896 0 666.763636 0 384s229.282909-512 512-512c282.763636 0 512 229.236364 512 512S794.763636 896 512 896m0-34.117818C775.493818 861.8821820000001 989.882182 647.447273 989.882182 384S775.447273-93.88218199999994 512-93.88218199999994 34.117818 120.50618199999997 34.117818 384 248.552727 861.8821820000001 512 861.8821820000001M597.317818 116.73599999999999a17.035636 17.035636 0 0 0-17.035636 17.082182v45.242182c0 56.785455-35.188364 93.416727-89.6 93.416727a17.035636 17.035636 0 1 0 0 34.117818c72.843636 0 123.717818-52.410182 123.717818-127.534545v-45.242182a17.035636 17.035636 0 0 0-17.082182-17.082182M153.6 116.73599999999999a17.035636 17.035636 0 0 0-17.082182 17.082182v45.242182c0 75.124364 50.874182 127.534545 123.764364 127.534545a17.035636 17.035636 0 1 0 0-34.117818c-54.458182 0-89.6-36.631273-89.6-93.416727v-45.242182a17.035636 17.035636 0 0 0-17.082182-17.082182M238.917818 447.767273v-43.473455c0-3.258182 3.537455-6.330182 7.307637-6.330182 9.402182 0 17.035636-7.586909 17.035636-17.035636 0-57.902545 47.802182-110.592 100.258909-110.592 55.761455 0 112.500364 55.854545 112.500364 110.592 0 9.448727 7.633455 17.035636 17.082181 17.035636 6.283636 0 17.408 5.306182 19.36291 8.564364L512 451.025455c0 1.722182 0 4.002909-0.139636 5.306181-0.837818-0.372364-5.445818 0.930909-16.942546 0.930909a17.035636 17.035636 0 0 0-17.035636 17.082182V521.169455c0 48.128-23.738182 70.609455-74.565818 70.609454-41.984 0-85.178182-16.290909-85.597091-16.430545a17.408 17.408 0 0 0-6.050909-1.117091c-33.605818 0-38.632727-33.28-38.632728-53.061818V474.298182a17.035636 17.035636 0 0 0-12.055272-16.290909 82.525091 82.525091 0 0 1-22.062546-10.286546m124.602182-211.549091c-67.304727 0-126.882909 59.810909-133.725091 131.072a41.006545 41.006545 0 0 0-24.994909 37.003637V451.025455c0 17.547636 18.059636 28.858182 34.117818 35.374545v34.769455c0 52.503273 26.530909 85.550545 69.538909 87.13309 11.264 4.002909 52.596364 17.594182 94.859637 17.594182 70.097455 0 108.683636-37.236364 108.683636-104.727272v-30.859637c24.017455-3.490909 34.117818-15.592727 34.117818-39.284363v-46.731637c0-19.921455-19.409455-32.674909-36.864-37.841454-8.704-67.723636-76.613818-130.234182-145.687273-130.234182M634.833455 270.336a17.035636 17.035636 0 1 0 0 34.164364 201.076364 201.076364 0 0 1 172.916363 96.349091c-11.636364 19.874909-38.4 66.978909-43.752727 89.506909-8.983273 38.074182-39.051636 126.743273-123.578182 126.743272-16.849455 0-32.768-3.723636-47.336727-11.170909a17.082182 17.082182 0 0 0-15.499637 30.394182c19.409455 9.867636 40.541091 14.894545 62.836364 14.894546 75.543273 0 134.190545-57.204364 156.858182-153.041455 3.909818-16.663273 29.509818-62.836364 44.683636-88.064 3.072-5.026909 3.304727-11.264 0.698182-16.477091-22.900364-45.800727-92.439273-123.298909-207.825454-123.298909M870.4 116.73599999999999a17.035636 17.035636 0 0 0-17.082182 17.082182v45.242182c0 53.806545-61.393455 91.275636-116.503273 91.275636h-88.296727a17.035636 17.035636 0 1 0 0 34.164364h88.296727c72.750545 0 150.667636-50.408727 150.667637-125.44v-45.242182a17.035636 17.035636 0 0 0-17.082182-17.082182"  horiz-adv-x="1024" />

    
    <glyph glyph-name="attention" unicode="&#58933;" d="M512 640c-38.4 0-64 25.6-64 64s25.6 64 64 64 64-25.6 64-64S550.4 640 512 640z m64-512c0-38.4-25.6-64-64-64a64.146286 64.146286 0 0 0-64 64V512c0 38.4 25.6 64 64 64s64-32.036571 64-64v-384zM512 896C230.4 896 0 665.6 0 384s230.4-512 512-512 512 230.4 512 512-230.4 512-512 512z"  horiz-adv-x="1024" />

    
    <glyph glyph-name="scan" unicode="&#58934;" d="M110.72 530.624h-64V768A96 96 0 0 0 142.72 864h237.44v-64H142.72a32 32 0 0 1-32-32v-237.376z m269.44-531.392v-64H142.72a96 96 0 0 0-96 96v237.44h64v-237.44a32 32 0 0 1 32-32h237.44z m533.12 269.44h64v-237.44a96 96 0 0 0-96-96h-237.44v64h237.44a32 32 0 0 1 32 32v237.44zM643.84 800v64h237.44a96 96 0 0 0 96-96v-237.376h-64V768a32 32 0 0 1-32 32h-237.44zM37.76 387.328v64h946.944v-64H37.696z"  horiz-adv-x="1024" />

    
    <glyph glyph-name="quick-buy" unicode="&#58935;" d="M512-76.79999999999995a460.8 460.8 0 1 1 0 921.6 460.8 460.8 0 0 1 0-921.6z m0-51.2C229.2224-128 0 101.2224 0 384S229.2224 896 512 896s512-229.2224 512-512-229.2224-512-512-512zM467.1488 691.2L256 315.49440000000004h206.9504l-131.2256-317.3888 416.3072 463.872H499.3536L655.5136 691.2z"  horiz-adv-x="1024" />

    
    <glyph glyph-name="checked" unicode="&#58936;" d="M512-128A512 512 0 1 0 512 896a512 512 0 0 0 0-1024z m-98.417778 319.374222l34.133334-32.369778 32.312888 34.133334 350.776889 371.655111-43.121777 39.822222L447.715556 308.33777799999996 241.208889 443.562667l-48.071111-43.178667 220.444444-209.009778z"  horiz-adv-x="1024" />

    
    <glyph glyph-name="edit" unicode="&#58937;" d="M842.048 768L404.8 330.75199999999995l-34.496-144.384 151.936 29.12 436.16 436.16L842.048 768z m-129.92-108.288l45.312 45.248 148.672-148.672-45.248-45.248-148.672 148.672z m175.168 153.6l116.352-116.48a64 64 0 0 0 0-90.432L567.488 170.24a64 64 0 0 0-33.152-17.6l-151.936-29.184a64 64 0 0 0-74.368 77.76l34.56 144.384a64 64 0 0 0 16.96 30.4l437.248 437.248a64 64 0 0 0 90.496 0z m-386.368-12.416v-64H137.152A9.152 9.152 0 0 1 128 727.6800000000001v-731.456c0-5.056 4.096-9.152 9.152-9.152H868.48a9.152 9.152 0 0 1 9.152 9.152V351.03999999999996h64v-354.752c0-40.32-32.704-73.152-73.152-73.152H137.152A73.152 73.152 0 0 0 64-3.711999999999989V727.744c0 40.384 32.768 73.152 73.152 73.152h363.776z"  horiz-adv-x="1024" />

    
    <glyph glyph-name="shop" unicode="&#58938;" d="M209.136941 374.54305899999997a118.784 118.784 0 0 1 118.723765 118.784h60.235294a118.784 118.784 0 0 1 237.507765 0h60.235294a118.784 118.784 0 0 1 237.387294-5.963294l-138.179765 318.102588-556.333176-4.216471-138.24-313.946353a118.784 118.784 0 0 1 118.663529-112.76047z m297.743059-60.235294a178.838588 178.838588 0 0 0-148.901647 79.631059A179.019294 179.019294 0 0 0 30.117647 493.327059l2.529882 12.107294 148.781177 337.92a30.117647 30.117647 0 0 0 27.346823 17.950118L804.502588 865.882353a30.117647 30.117647 0 0 0 27.828706-18.070588l148.781177-342.497883 2.529882-12.047058a179.019294 179.019294 0 0 0-327.920941-99.388236 178.838588 178.838588 0 0 0-148.841412-79.510588z m353.882353-49.212236a30.117647 30.117647 0 1 0 60.235294 0v-314.247529a30.117647 30.117647 0 0 0-30.117647-30.117647H139.264a30.117647 30.117647 0 0 0-30.117647 30.117647v314.247529a30.117647 30.117647 0 1 0 60.235294 0v-284.129882H860.762353v284.129882zM286.117647 579.7647059999999a30.117647 30.117647 0 0 0 0 60.235294h451.764706a30.117647 30.117647 0 1 0 0-60.235294h-451.764706z"  horiz-adv-x="1024" />

    
    <glyph glyph-name="check-mark" unicode="&#58939;" d="M546.56-49.408000000000015l76.8-72.832 72.704 76.8L1485.312 790.656l-97.024 89.6L623.36 213.76 158.72 518.0160000000001l-108.16-97.152z"  horiz-adv-x="1536" />

    
    <glyph glyph-name="wode" unicode="&#58940;" d="M512 127.05792A374.21056 374.21056 0 1 0 512 875.52a374.21056 374.21056 0 0 0 0-748.46208z m0 122.88A251.33056 251.33056 0 1 1 512 752.64a251.33056 251.33056 0 0 1 0-502.70208zM35.38944-126.1568v122.88H1003.52v-122.88H35.38944z"  horiz-adv-x="1024" />

    
    <glyph glyph-name="yiguoqi" unicode="&#58941;" d="M159.428831 350.069878A508.711091 508.711091 0 0 0 157.538371 393.845853C157.538371 671.172462 382.365318 895.999409 659.691927 895.999409a499.849558 499.849558 0 0 0 288.058911-90.781486L1104.993824 895.999409l220.553719-382.010856-404.67669-233.629404C887.236411 160.13768 776.86109 71.975269 645.90732 71.975269c-24.379063 0-48.049203 3.071998-70.65596 8.822149l-168.979594-97.555636A480.078492 480.078492 0 0 1 659.691927-88.615407C926.148389-88.615407 1142.153187 127.389391 1142.153187 393.845853c0 3.544613-0.039385 7.069534-0.118154 10.594455l19.357528 11.027686c0.295384-7.187688 0.452923-14.375376 0.452923-21.622141C1161.845484 116.519244 937.018536-108.307704 659.691927-108.307704c-100.529173 0-194.166042 29.538444-272.698919 80.423339l-152.910682-88.280565L13.528608 265.845927l145.900223 84.223951zM928.865926 794.308391A480.098185 480.098185 0 0 1 659.691927 876.307113C393.235465 876.307113 177.230667 660.302314 177.230667 393.845853c0-11.007994 0.374154-21.95691 1.102769-32.84675l191.15312 110.355628C403.258844 591.39897 513.575088 679.38415 644.391013 679.38415c24.260909 0 47.812895-3.032614 70.301498-8.723688L928.885618 794.308391z m-239.674939-138.377766a266.023231 266.023231 0 0 1-294.242292-169.885441l294.242292 169.885441z m206.276804-390.242237l-294.793676-170.200517a266.023231 266.023231 0 0 1 294.793676 170.180825z m-654.178084-354.953641l1057.358159 610.461186-200.861422 347.903799-1057.35816-610.461186 200.861423-347.903799z m273.585073 391.207159l-126.877465-73.255343 35.446133-61.40058c4.844305-8.388918 11.421532-10.318763 19.81045-5.474458l104.763017 60.494734c4.509536 2.599383 7.679996 6.065227 9.137225 10.180918 1.555691 5.809227-3.544613 20.32245-15.517529 43.421513l16.935374 3.780921c12.60307-26.564908 18.057836-43.598744 16.620299-51.515047-2.008614-6.892304-6.852919-12.701531-14.808607-17.821528l-112.955012-65.220886c-15.556914-8.979687-27.864599-5.179074-37.080594 10.791379l-62.267041 107.854707 14.74953 8.507072 17.014144-29.479368 111.931012 64.630116-30.838136 53.4252-137.72792-79.517492-8.270765 14.316299 152.674374 88.142719 47.261511-81.860876z m7.483072 124.100851c20.164911-2.796306 38.104593-6.911996 53.661508-12.130454l-4.391382-16.97476c-14.414761 5.592612-32.374135 10.239994-53.956892 13.587685l4.686766 15.517529z m228.982022-109.272552c-11.657839-6.734765-24.477524-13.863377-38.301516-21.563065-14.040607-7.837534-25.993831-13.095377-35.682441-15.69476-10.023379-2.500922-20.539065-1.772307-31.350136 1.831384-4.863997 1.811691-8.66461 1.791999-11.342763 0.256-4.923074-2.835691-7.876919-17.092913-8.211687-42.929206l-16.738452 3.426459c0.905846 23.985217 4.37169 40.172285 10.830763 48.836895l-35.780902 61.991349-29.479368-17.014144-8.034457 13.922453 43.598744 25.166755 44.307667-76.740879c2.343383-0.275692 5.001843-0.649846 8.034457-1.63446a65.575347 65.575347 0 0 1 24.221524-3.209845c8.073841 1.122461 18.727374 5.356305 31.665213 12.287993 11.362455 6.301535 25.599985 14.23753 42.397514 23.92614 8.999379 5.198766 17.880605 10.594455 27.293522 16.02953 9.097841 5.513843 16.147683 9.86584 20.814758 13.115069l4.923074-17.073221-43.165514-24.930447zM729.363272 340.676653l-29.046138-16.777837-11.421531 12.209224c9.747687 4.844305 19.199989 9.747687 27.805522 14.710145 5.710766 3.308306 7.128611 7.935995 3.938459 13.469531l-50.215355 86.980873-77.35134-44.662128-8.388919 14.513222 77.35134 44.662128-19.140912 33.161827 14.966146 8.625226 19.121219-33.161827 30.286752 17.486759 8.388918-14.513222-30.286751-17.486759 52.223969-90.46641c6.852919-11.874455 4.056613-21.661526-8.231379-28.750752z m-103.463325 60.593195c21.838757-7.581534 39.542131-15.103991 53.129815-22.547679l-7.148303-15.044914c-14.454146 8.034457-32.098443 15.871991-53.188893 23.611063l7.207381 13.98153z m100.214096 145.447301l14.316299 8.270765 13.233223-22.921833 39.916285 23.039986-12.996916 22.508295 14.3163 8.270765 12.996915-22.508295 12.287993 7.089227 7.916303-13.725531-12.287993-7.089227 49.979049-86.567334 13.311992 7.679995 8.034457-13.902761-96.807329-55.886737-8.034457 13.902761 14.946453 8.625226-49.979048 86.567335-12.701531-7.325535-7.916303 13.725531 12.701531 7.325534-13.233223 22.921833z m85.464566-114.943933l39.896592 23.039986-11.57907 20.06645-39.916285-23.039987 11.57907-20.066449z m-10.082456 109.607321l-39.916285-23.039987 11.815378-20.460296 39.916285 23.039987-11.815378 20.479988z m-8.959995-76.642417l39.916285 23.039986-11.697224 20.243681-39.916285-23.039987 11.697224-20.24368z m66.363039-31.271367c16.699067-6.734765 30.326136-13.331685 40.644899-19.37722 2.520614 26.820908-4.54892 54.665815-20.676911 83.554414l-55.295968 95.783329 67.938423 39.227054 92.632561-160.45283c6.734765-11.657839 4.017228-21.129834-7.857226-27.982753l-21.681218-12.524301-12.484916 12.150147c7.798149 3.977844 15.00553 7.581534 21.543372 11.362455 5.31692 3.071998 6.222766 7.679996 2.678153 13.823992l-24.221525 41.944591-39.719362-22.921833c12.740916-28.671983 17.427682-55.709506 14.3163-81.526106l-17.270144 3.938459c0.177231 0.669538 0.137846 1.181538 0.098461 1.71323l-6.340919-14.040608c-11.362455 7.364919-25.343985 14.572299-41.629514 21.543373l7.325534 13.784607z m-40.034439-22.843064l15.163069 1.122461c0.748307-19.219681-0.807384-37.316902-4.785228-54.075046l-16.502145 1.654153c4.430767 15.95076 6.596919 33.004289 6.124304 51.298432z m55.729199 127.960542l18.077528-31.310751c1.063384-1.851076 1.811691-3.60369 2.756921-5.238151l38.892286 22.449218-21.031373 36.430748-38.695362-22.331064z m30.897213 35.839979l-20.676911 35.800595-38.695363-22.331064 20.676912-35.800595 38.695362 22.331064z"  horiz-adv-x="1339" />

    
    <glyph glyph-name="zhidingx" unicode="&#58942;" d="M558.47 691.931v-366.348a48.762 48.762 0 0 0-97.524 0V684.325l-290.28-290.28a48.762 48.762 0 1 0-68.997 68.95l377.32 377.319a48.762 48.762 0 0 0 68.997 0l377.32-377.32a48.762 48.762 0 0 0-68.95-68.949L558.422 691.931z m-97.524-579.779a48.762 48.762 0 1 0 97.524 0v-160.085a48.762 48.762 0 0 0-97.524 0V112.152z"  horiz-adv-x="1024" />

    
    <glyph glyph-name="phone1" unicode="&#58943;" d="M778.678857 822.857143c34.523429 0 61.952-27.428571 61.952-60.964572v-792.356571c0-33.536-27.428571-60.964571-61.952-60.964571H281.380571C247.369143-91.42857100000003 219.428571-64 219.428571-30.464000000000055V761.892571C219.428571 795.428571 246.857143 822.857143 281.380571 822.857143h497.298286zM315.428571 110.73828600000002h429.202286V695.369143H315.428571v-584.630857z m214.345143-141.202286c23.369143 0 41.654857 18.285714 41.654857 40.594286 0 22.381714-18.797714 40.667429-41.654857 40.667428s-41.654857-18.285714-41.654857-40.630857 18.797714-40.630857 41.691429-40.630857zM457.654857 760.393143H457.142857v-10.166857c0-5.595429 5.083429-10.166857 10.678857-10.166857h104.118857a10.203429 10.203429 0 0 1 10.166858 10.166857v10.166857a10.203429 10.203429 0 0 1-10.166858 10.130286h-103.606857a10.313143 10.313143 0 0 1-10.678857-10.130286z"  horiz-adv-x="1024" />

    
    <glyph glyph-name="yooxi" unicode="&#58944;" d="M407.368 772.314c16.275-2.789 32.715-4.854 48.798-8.491 60.918-13.786 117.403-36.944 165.83-77.813 45.685-38.554 79.48-84.609 94.866-143.049 1.16-4.402 1.813-8.937 2.956-14.707-96.43 7.358-180.794-17.78-248.077-87.387-68.478-70.84-91.055-154.841-64.402-253.685-20.464 0-40.316-1.712-59.752 0.408-27.848 3.036-55.336 9.262-83.106 13.22-6.666 0.95-14.645-0.027-20.653-2.942-35.413-17.164-70.415-35.173-105.586-52.836-1.44-0.725-3.195-0.827-6.057-1.525 0 2.989-0.604 5.471 0.09 7.517 9.466 27.904 18.872 55.837 28.856 83.56 3.08 8.549 2.802 13.372-5.796 19.546-53.267 38.234-94.908 85.902-115.562 149.48-4.15 12.78-7.247 25.898-10.83 38.86v74.153c1.078 1.613 2.86 3.117 3.13 4.855 7.608 48.925 28.112 92.15 60.07 129.434 53.105 61.955 121.743 97.344 200.989 113.42 14.17 2.876 28.425 5.334 42.643 7.981l71.593 0.001zM541.31 582.233c0.212 22.732-17.233 40.233-40.703 40.836-23.479 0.604-48.464-20.264-48.742-40.706-0.27-19.695 24.028-41.556 46.576-41.906 24.367-0.38 42.644 17.431 42.869 41.776z m-238.92-1.801c-1.361 25.524-14.19 37.346-35.807 41.939-19.998 4.248-47.56-12.521-52.132-31.05-1.673-6.78-2.256-15.467 0.586-21.409 8.759-18.323 24.808-27.625 44.92-28.684 21.873-1.155 42.636 18.501 42.434 39.204zM900.855-17.77800000000002c-29.52 16.615-58.966 33.357-88.674 49.628-2.76 1.513-7.355 0.68-10.802-0.21-40.551-10.456-81.532-18.003-123.552-13.497-109.176 11.721-197.336 57.308-244.86 161.3-36.888 80.719-17.978 173.937 44.86 240.791 52.099 55.433 117.37 83.548 192.255 91.548 90.883 9.716 171.962-14.005 241.92-72.576 51.488-43.103 81.983-98.445 85.645-166.286 2.193-40.6-10.528-77.914-31.988-112.232-20.532-32.838-46.692-60.63-77.432-83.972-8.102-6.15-9.649-12.052-6.655-21.41 7.74-24.215 14.618-48.706 21.839-73.085l-2.556 0.001zM613.65 309.56500000000005c21.44-0.077 40.719 14.833 41.062 31.756 0.366 18.091-19.232 34.554-41.28 34.669-17.468 0.09-34.634-16.538-34.734-33.653-0.1-17.3 16.327-32.707 34.952-32.772z m189.533-0.015c21.066 0.07 39.21 15.734 38.92 33.6-0.288 17.929-19.49 33.143-41.404 32.8-16.76-0.26-33.58-16.878-33.745-33.338-0.175-17.618 16.818-33.127 36.23-33.062z"  horiz-adv-x="1024" />

    


  </font>
</defs>
</svg>
